<svg id="svg" version="1.1" xmlns="http://www.w3.org/2000/svg" xmlns:xlink="http://www.w3.org/1999/xlink" width="400" height="400" viewBox="0, 0, 400,400"><g id="svgg"><path id="path0" d="M316.291 162.800 C 315.731 163.240,315.122 163.602,314.937 163.604 C 314.649 163.607,301.348 170.239,297.800 172.149 C 297.140 172.504,296.296 172.796,295.924 172.798 C 295.552 172.799,295.142 172.970,295.014 173.177 C 294.886 173.384,292.349 174.779,289.375 176.277 C 286.402 177.775,282.851 179.573,281.485 180.274 C 280.118 180.975,278.744 181.560,278.431 181.574 C 278.119 181.588,277.579 181.844,277.231 182.142 C 276.551 182.726,274.343 183.892,269.600 186.174 C 267.950 186.968,266.330 187.783,266.000 187.985 C 265.670 188.187,264.050 188.990,262.400 189.771 C 260.750 190.551,258.410 191.722,257.200 192.373 C 255.990 193.023,254.370 193.832,253.600 194.170 C 252.830 194.507,251.930 194.962,251.600 195.179 C 251.270 195.397,249.020 196.515,246.600 197.665 C 244.180 198.814,241.930 199.956,241.600 200.203 C 241.270 200.449,239.650 201.250,238.000 201.983 C 236.350 202.716,234.730 203.538,234.400 203.811 C 234.070 204.083,233.350 204.440,232.800 204.605 C 232.250 204.770,231.350 205.219,230.800 205.603 C 230.250 205.987,229.215 206.427,228.500 206.582 C 227.785 206.737,227.200 207.010,227.200 207.188 C 227.200 207.367,226.436 207.819,225.501 208.193 C 224.567 208.567,223.712 209.001,223.601 209.157 C 223.491 209.313,222.543 209.763,221.495 210.155 C 220.448 210.548,219.411 211.205,219.192 211.616 C 218.319 213.246,218.673 338.982,219.551 339.122 C 220.833 339.327,224.451 336.058,236.894 323.451 C 243.436 316.823,261.076 298.992,276.094 283.826 C 336.888 222.437,336.699 222.632,337.806 220.309 C 338.149 219.589,338.982 218.010,339.657 216.800 C 340.823 214.710,341.138 213.715,342.565 207.600 C 343.325 204.346,343.347 197.822,342.611 194.400 C 341.538 189.408,340.736 186.596,340.217 186.000 C 339.930 185.670,339.557 184.950,339.389 184.400 C 338.603 181.826,335.051 177.521,327.505 169.994 C 318.874 161.386,318.442 161.108,316.291 162.800 M80.400 163.400 C 80.191 163.950,79.745 164.400,79.410 164.400 C 79.074 164.400,78.800 164.658,78.800 164.973 C 78.800 165.288,78.440 165.660,78.000 165.800 C 77.560 165.940,77.198 166.267,77.196 166.527 C 77.190 167.113,74.673 169.600,74.084 169.600 C 73.848 169.600,73.546 169.941,73.414 170.357 C 73.282 170.773,72.819 171.206,72.387 171.319 C 71.954 171.433,71.600 171.812,71.600 172.163 C 71.600 172.513,71.326 172.800,70.991 172.800 C 70.657 172.800,70.178 173.250,69.927 173.800 C 69.677 174.350,69.234 174.800,68.943 174.800 C 68.653 174.800,68.307 175.233,68.174 175.762 C 68.041 176.291,67.587 176.815,67.166 176.925 C 66.745 177.035,66.400 177.412,66.400 177.763 C 66.400 178.133,66.065 178.400,65.600 178.400 C 65.018 178.400,64.800 178.667,64.800 179.379 C 64.800 179.918,64.350 180.844,63.800 181.438 C 63.250 182.031,62.800 182.849,62.800 183.255 C 62.800 183.661,62.440 184.218,62.000 184.493 C 61.560 184.768,61.200 185.389,61.200 185.874 C 61.200 186.358,60.836 187.009,60.392 187.321 C 59.729 187.785,59.542 188.489,59.352 191.243 C 59.189 193.604,58.894 194.922,58.360 195.684 C 57.205 197.330,57.235 205.146,58.400 206.200 C 58.882 206.637,59.200 207.432,59.200 208.203 C 59.200 211.762,59.710 214.335,60.454 214.530 C 60.977 214.667,61.200 215.091,61.200 215.948 C 61.200 216.745,61.468 217.315,61.967 217.583 C 62.390 217.809,62.854 218.535,62.999 219.197 C 63.145 219.859,63.511 220.400,63.814 220.400 C 64.126 220.400,64.477 221.006,64.626 221.800 C 64.771 222.570,65.067 223.200,65.284 223.200 C 65.767 223.200,67.820 225.355,68.146 226.203 C 68.276 226.541,68.674 226.930,69.031 227.067 C 69.994 227.437,71.600 229.152,71.600 229.811 C 71.600 230.126,72.050 230.498,72.600 230.636 C 73.150 230.774,73.600 231.108,73.600 231.379 C 73.600 231.650,74.050 232.077,74.600 232.327 C 75.150 232.578,75.600 233.057,75.600 233.391 C 75.600 233.726,75.887 234.000,76.237 234.000 C 76.588 234.000,76.973 234.374,77.092 234.831 C 77.212 235.288,77.735 235.823,78.255 236.021 C 78.775 236.218,79.200 236.655,79.200 236.990 C 79.200 237.326,79.450 237.600,79.757 237.600 C 80.063 237.600,80.426 238.050,80.564 238.600 C 80.726 239.246,81.096 239.600,81.608 239.600 C 82.043 239.600,82.405 239.825,82.411 240.100 C 82.417 240.375,83.227 241.304,84.211 242.165 C 85.195 243.026,86.000 243.971,86.000 244.265 C 86.000 244.559,86.360 244.800,86.800 244.800 C 87.240 244.800,87.600 244.954,87.600 245.142 C 87.600 245.329,88.050 245.969,88.600 246.562 C 89.150 247.156,89.600 247.812,89.600 248.021 C 89.600 248.229,89.806 248.400,90.057 248.400 C 90.681 248.400,93.190 250.879,93.196 251.500 C 93.198 251.775,93.468 252.000,93.797 252.000 C 94.125 252.000,94.618 252.360,94.893 252.800 C 95.168 253.240,95.616 253.600,95.889 253.600 C 96.161 253.600,96.493 254.033,96.626 254.562 C 96.759 255.091,97.213 255.615,97.634 255.725 C 98.055 255.835,98.400 256.200,98.400 256.536 C 98.400 256.871,98.760 257.260,99.200 257.400 C 99.640 257.540,100.000 257.929,100.000 258.264 C 100.000 258.600,100.360 258.969,100.800 259.084 C 101.240 259.199,101.600 259.546,101.600 259.855 C 101.600 260.164,102.050 260.622,102.600 260.873 C 103.150 261.123,103.600 261.586,103.600 261.902 C 103.600 262.217,103.954 262.567,104.387 262.681 C 104.819 262.794,105.282 263.227,105.414 263.643 C 105.546 264.059,105.929 264.400,106.264 264.400 C 106.600 264.400,106.973 264.774,107.092 265.231 C 107.212 265.688,107.735 266.223,108.255 266.421 C 108.775 266.618,109.200 267.055,109.200 267.390 C 109.200 267.726,109.487 268.000,109.837 268.000 C 110.188 268.000,110.567 268.354,110.681 268.787 C 110.794 269.219,111.208 269.675,111.600 269.800 C 111.992 269.925,112.406 270.381,112.519 270.813 C 112.633 271.246,113.012 271.600,113.363 271.600 C 113.713 271.600,114.000 271.776,114.000 271.991 C 114.000 272.514,120.270 278.800,120.791 278.800 C 121.016 278.800,121.200 279.074,121.200 279.409 C 121.200 279.743,121.635 280.215,122.166 280.457 C 122.697 280.699,123.221 281.236,123.329 281.649 C 123.437 282.062,123.812 282.400,124.163 282.400 C 124.513 282.400,124.800 282.586,124.800 282.813 C 124.800 283.351,127.449 286.000,127.987 286.000 C 128.214 286.000,128.400 286.180,128.400 286.400 C 128.400 286.620,130.200 288.600,132.400 290.800 C 134.600 293.000,136.580 294.800,136.800 294.800 C 137.020 294.800,137.200 295.074,137.200 295.409 C 137.200 295.743,137.635 296.215,138.166 296.457 C 138.697 296.699,139.221 297.236,139.329 297.649 C 139.437 298.062,139.812 298.400,140.163 298.400 C 140.513 298.400,140.800 298.586,140.800 298.813 C 140.800 299.351,143.449 302.000,143.987 302.000 C 144.214 302.000,144.400 302.191,144.400 302.424 C 144.400 302.658,147.505 305.956,151.300 309.754 C 155.095 313.552,158.800 317.366,159.533 318.230 C 162.239 321.419,175.449 334.514,176.900 335.446 C 177.725 335.976,178.400 336.548,178.400 336.717 C 178.400 336.886,178.941 337.229,179.601 337.478 L 180.802 337.931 180.701 275.071 C 180.601 212.615,180.595 212.210,179.802 212.057 C 179.363 211.973,178.573 211.565,178.048 211.152 C 177.522 210.738,176.578 210.400,175.949 210.400 C 175.240 210.400,174.617 210.097,174.307 209.600 C 174.032 209.160,173.487 208.800,173.095 208.800 C 172.703 208.800,172.178 208.350,171.927 207.800 C 171.533 206.934,171.212 206.800,169.539 206.800 C 168.040 206.800,167.495 206.621,167.107 206.000 C 166.832 205.560,166.211 205.200,165.726 205.200 C 165.242 205.200,164.599 204.849,164.298 204.419 C 163.997 203.989,162.966 203.462,162.007 203.246 C 161.047 203.030,160.104 202.572,159.911 202.227 C 159.718 201.882,159.152 201.600,158.652 201.600 C 158.153 201.600,157.353 201.150,156.875 200.600 C 156.380 200.031,155.574 199.600,155.003 199.600 C 154.451 199.600,153.640 199.240,153.200 198.800 C 152.760 198.360,151.950 198.000,151.400 198.000 C 150.850 198.000,150.040 197.640,149.600 197.200 C 149.160 196.760,148.526 196.400,148.190 196.400 C 147.855 196.400,147.409 195.950,147.200 195.400 C 146.864 194.517,146.586 194.400,144.813 194.400 C 143.240 194.400,142.699 194.227,142.307 193.600 C 142.032 193.160,141.500 192.800,141.124 192.800 C 140.749 192.800,139.956 192.350,139.362 191.800 C 138.769 191.250,137.858 190.800,137.338 190.800 C 136.818 190.800,136.084 190.440,135.707 190.000 C 135.330 189.560,134.647 189.200,134.189 189.200 C 133.730 189.200,132.745 188.750,132.000 188.200 C 131.255 187.650,130.320 187.200,129.922 187.200 C 129.467 187.200,129.200 186.905,129.200 186.400 C 129.200 185.730,128.933 185.600,127.558 185.600 C 126.390 185.600,125.572 185.311,124.727 184.600 C 124.073 184.050,123.192 183.600,122.769 183.600 C 122.346 183.600,122.000 183.342,122.000 183.027 C 122.000 182.442,121.604 182.262,119.273 181.792 C 118.543 181.645,117.849 181.272,117.730 180.962 C 117.612 180.653,116.985 180.400,116.338 180.400 C 115.597 180.400,114.819 180.030,114.235 179.400 C 113.697 178.819,112.865 178.400,112.250 178.400 C 111.668 178.400,110.884 178.040,110.507 177.600 C 110.130 177.160,109.516 176.800,109.142 176.800 C 108.768 176.800,107.927 176.350,107.273 175.800 C 106.619 175.250,105.726 174.800,105.289 174.800 C 104.830 174.800,104.405 174.462,104.284 174.000 C 104.119 173.370,103.738 173.200,102.496 173.200 C 101.366 173.200,100.610 172.916,99.838 172.200 C 99.244 171.650,98.408 171.200,97.979 171.200 C 97.485 171.200,97.200 170.927,97.200 170.452 C 97.200 169.864,96.821 169.661,95.430 169.505 C 94.456 169.395,93.172 168.921,92.576 168.452 C 91.980 167.984,91.230 167.600,90.909 167.600 C 90.589 167.600,89.869 167.240,89.309 166.800 C 88.750 166.360,87.868 166.000,87.349 166.000 C 86.831 166.000,86.182 165.640,85.907 165.200 C 85.632 164.760,85.010 164.400,84.524 164.400 C 84.039 164.400,83.156 163.950,82.562 163.400 C 81.969 162.850,81.325 162.400,81.132 162.400 C 80.938 162.400,80.609 162.850,80.400 163.400 " stroke="none" fill="#2870d8" fill-rule="evenodd"></path><path id="path1" d="M194.600 57.476 C 193.940 57.562,192.500 57.882,191.400 58.187 C 190.300 58.493,188.545 58.959,187.500 59.223 C 186.455 59.488,185.600 59.848,185.600 60.025 C 185.600 60.202,185.195 60.467,184.700 60.615 C 183.559 60.956,178.520 64.263,177.200 65.537 C 176.650 66.068,175.642 66.930,174.961 67.453 C 174.279 67.975,167.619 74.530,160.161 82.019 C 152.702 89.509,145.196 97.023,143.479 98.718 C 141.763 100.413,138.163 104.027,135.479 106.749 C 132.796 109.472,129.983 112.262,129.229 112.949 C 127.574 114.458,126.931 115.098,125.525 116.629 C 124.934 117.273,124.214 117.998,123.925 118.240 C 123.636 118.483,122.746 119.383,121.947 120.240 C 121.147 121.098,119.077 123.179,117.347 124.864 C 109.173 132.822,108.190 134.112,109.900 134.642 C 110.575 134.851,114.335 136.672,116.400 137.790 C 116.950 138.088,118.660 138.929,120.200 139.658 C 121.740 140.387,123.090 141.096,123.200 141.234 C 123.310 141.372,124.061 141.699,124.868 141.962 C 125.675 142.226,126.552 142.702,126.817 143.020 C 127.082 143.339,127.543 143.600,127.843 143.600 C 128.488 143.600,133.173 145.979,133.913 146.681 C 134.195 146.949,135.052 147.286,135.817 147.430 C 136.583 147.573,137.295 147.831,137.401 148.002 C 137.507 148.173,139.117 149.057,140.980 149.967 C 142.842 150.877,144.474 151.797,144.607 152.011 C 144.739 152.225,145.152 152.403,145.524 152.406 C 145.896 152.409,146.650 152.673,147.200 152.992 C 147.750 153.312,148.920 153.937,149.800 154.381 C 150.680 154.826,151.670 155.361,152.000 155.571 C 152.330 155.780,153.950 156.597,155.600 157.385 C 157.250 158.173,158.870 158.974,159.200 159.164 C 159.530 159.355,161.870 160.530,164.400 161.777 C 166.930 163.023,169.270 164.192,169.600 164.374 C 169.930 164.556,171.609 165.402,173.330 166.253 C 175.052 167.104,176.852 168.022,177.330 168.294 C 177.809 168.566,178.504 168.791,178.876 168.794 C 179.248 168.797,179.673 168.995,179.820 169.233 C 179.968 169.471,180.833 170.009,181.744 170.428 C 182.655 170.847,183.670 171.361,184.000 171.569 C 184.330 171.778,185.950 172.589,187.600 173.372 C 189.250 174.154,190.870 174.956,191.200 175.154 C 191.530 175.353,192.250 175.712,192.800 175.954 C 193.350 176.196,194.070 176.565,194.400 176.773 C 197.950 179.012,200.817 179.581,202.600 178.400 C 203.260 177.963,204.068 177.604,204.396 177.603 C 204.989 177.600,209.138 175.571,212.200 173.787 C 213.080 173.274,214.467 172.658,215.282 172.417 C 216.097 172.176,216.997 171.753,217.282 171.476 C 217.567 171.199,218.880 170.477,220.200 169.870 C 223.023 168.573,225.356 167.393,227.200 166.330 C 227.530 166.140,228.430 165.701,229.200 165.355 C 231.357 164.385,235.331 162.420,236.000 161.993 C 236.330 161.782,238.580 160.682,241.000 159.547 C 243.420 158.413,245.670 157.265,246.000 156.996 C 246.330 156.727,247.082 156.393,247.672 156.253 C 248.262 156.113,248.990 155.753,249.291 155.452 C 249.591 155.152,250.279 154.771,250.819 154.607 C 251.358 154.442,252.160 153.992,252.600 153.607 C 253.040 153.221,253.929 152.779,254.576 152.626 C 255.222 152.472,256.240 151.999,256.837 151.573 C 257.435 151.148,258.186 150.800,258.508 150.800 C 258.829 150.800,259.521 150.465,260.046 150.055 C 260.571 149.645,262.350 148.738,264.000 148.039 C 265.650 147.341,267.270 146.604,267.600 146.403 C 267.930 146.201,269.370 145.476,270.800 144.791 C 272.230 144.106,273.670 143.387,274.000 143.192 C 274.647 142.811,282.754 138.811,284.400 138.061 C 284.950 137.811,285.670 137.430,286.000 137.216 C 286.330 137.001,287.888 136.231,289.463 135.504 C 292.235 134.224,292.310 134.152,291.819 133.236 C 291.088 131.870,223.612 64.400,222.977 64.400 C 222.685 64.400,222.210 64.082,221.923 63.694 C 221.635 63.305,220.950 62.756,220.400 62.474 C 219.850 62.191,218.410 61.411,217.200 60.741 C 215.075 59.564,211.337 58.343,207.600 57.604 C 205.836 57.255,196.968 57.168,194.600 57.476 M72.509 169.291 C 64.551 177.266,62.245 180.040,60.738 183.448 C 60.319 184.393,59.822 185.263,59.633 185.380 C 57.085 186.954,55.578 203.296,57.398 209.600 C 57.747 210.810,58.199 212.430,58.402 213.200 C 58.828 214.818,61.085 219.233,63.084 222.358 C 63.847 223.550,71.562 231.688,80.332 240.551 C 89.059 249.370,100.200 260.639,105.089 265.593 C 113.807 274.428,153.403 314.397,166.714 327.800 C 177.303 338.462,179.673 340.369,181.300 339.532 C 181.962 339.191,182.000 335.743,182.000 275.656 L 182.000 212.139 181.100 211.320 C 180.605 210.870,178.670 209.748,176.800 208.828 C 174.930 207.907,173.130 206.995,172.800 206.801 C 172.470 206.607,170.850 205.803,169.200 205.015 C 167.550 204.227,165.930 203.415,165.600 203.211 C 165.270 203.007,161.220 200.973,156.600 198.692 C 151.980 196.411,147.840 194.344,147.400 194.099 C 146.960 193.855,144.800 192.762,142.600 191.671 C 140.400 190.580,136.800 188.743,134.600 187.588 C 132.400 186.433,130.060 185.221,129.400 184.896 C 124.705 182.579,113.690 177.057,113.200 176.774 C 112.701 176.487,97.206 168.759,85.879 163.148 C 80.632 160.549,81.738 160.041,72.509 169.291 M315.382 162.321 C 314.273 162.915,312.983 163.580,312.517 163.800 C 309.837 165.065,302.108 168.890,301.600 169.203 C 301.270 169.406,299.871 170.145,298.492 170.845 C 297.113 171.545,296.059 172.193,296.151 172.284 C 296.300 172.433,299.665 170.895,301.200 169.975 C 301.530 169.778,303.150 168.985,304.800 168.213 C 306.450 167.442,308.070 166.639,308.400 166.429 C 310.488 165.100,317.953 161.598,318.694 161.599 C 320.718 161.602,338.410 180.434,339.410 183.650 C 339.572 184.173,340.020 185.050,340.406 185.600 C 340.791 186.150,341.197 186.960,341.307 187.400 C 341.442 187.941,341.522 187.993,341.554 187.560 C 341.611 186.764,339.092 181.964,337.128 179.126 C 336.318 177.957,332.078 173.445,327.704 169.100 C 318.797 160.250,319.023 160.375,315.382 162.321 M91.800 166.882 C 97.080 169.519,101.850 171.926,102.400 172.232 C 102.950 172.538,103.704 172.791,104.076 172.794 C 104.448 172.797,104.853 172.962,104.975 173.160 C 105.097 173.357,108.933 175.356,113.499 177.601 C 118.064 179.846,122.070 181.836,122.400 182.025 C 123.382 182.585,140.560 191.291,143.492 192.715 C 144.981 193.438,146.650 194.280,147.200 194.586 C 147.750 194.892,149.370 195.722,150.800 196.430 C 152.230 197.139,154.570 198.308,156.000 199.028 C 157.430 199.748,161.390 201.714,164.800 203.397 C 168.210 205.080,171.450 206.703,172.000 207.004 C 174.478 208.362,178.719 210.400,179.067 210.400 C 179.278 210.400,179.934 210.905,180.525 211.522 L 181.600 212.644 181.600 275.734 C 181.600 346.235,181.877 340.300,178.689 338.160 C 177.760 337.536,176.730 336.811,176.400 336.550 C 175.433 335.784,130.567 290.639,105.012 264.719 C 99.959 259.593,89.245 248.740,81.204 240.600 C 66.945 226.167,62.800 221.733,62.800 220.911 C 62.800 220.689,62.434 220.042,61.986 219.473 C 61.538 218.903,60.965 217.844,60.713 217.119 C 60.460 216.393,60.050 215.595,59.801 215.345 C 59.551 215.095,59.114 213.835,58.829 212.545 C 58.544 211.255,58.106 209.947,57.855 209.639 C 57.548 209.260,57.400 206.456,57.401 201.039 C 57.402 191.008,58.227 188.021,63.089 180.435 C 65.295 176.992,80.638 161.579,81.560 161.880 C 81.912 161.994,86.520 164.246,91.800 166.882 M283.800 178.211 C 277.640 181.364,272.240 184.124,271.800 184.346 C 271.360 184.568,271.210 184.761,271.466 184.775 C 271.723 184.789,273.073 184.187,274.466 183.438 C 275.860 182.688,280.870 180.140,285.600 177.774 C 293.864 173.641,296.226 172.354,295.389 172.440 C 295.175 172.462,289.960 175.059,283.800 178.211 M269.424 185.161 C 269.120 185.653,263.669 188.400,262.997 188.400 C 262.700 188.400,262.219 188.628,261.929 188.906 C 261.638 189.184,259.606 190.296,257.413 191.377 C 255.220 192.458,253.617 193.406,253.851 193.484 C 254.086 193.562,255.340 193.028,256.639 192.297 C 257.937 191.567,260.260 190.383,261.800 189.668 C 263.340 188.953,264.960 188.161,265.400 187.908 C 265.840 187.655,266.920 187.099,267.800 186.671 C 270.201 185.505,271.147 184.800,270.313 184.800 C 269.947 184.800,269.547 184.963,269.424 185.161 M341.609 188.650 C 341.604 188.897,341.884 189.887,342.231 190.850 C 342.578 191.812,343.019 193.770,343.212 195.200 L 343.562 197.800 343.392 194.768 C 343.254 192.306,341.645 186.787,341.609 188.650 M248.930 195.540 C 246.912 196.563,244.886 197.580,244.429 197.800 C 243.972 198.020,238.505 200.765,232.282 203.900 C 226.058 207.035,220.767 209.600,220.524 209.600 C 220.281 209.600,219.524 210.236,218.841 211.014 L 217.600 212.428 217.600 275.734 C 217.600 324.439,217.711 339.151,218.080 339.520 C 219.657 341.097,222.902 338.738,232.388 329.120 C 236.685 324.763,250.591 310.714,263.290 297.900 C 318.681 242.006,334.094 226.356,335.924 224.150 C 340.059 219.163,343.096 212.106,343.389 206.800 C 343.553 203.840,343.551 203.832,343.227 206.200 C 342.831 209.095,341.134 214.868,340.111 216.800 C 338.954 218.986,337.064 222.179,336.796 222.400 C 336.663 222.510,336.287 222.991,335.960 223.470 C 335.185 224.606,307.940 252.311,271.368 289.152 C 255.290 305.349,239.270 321.549,235.768 325.154 C 232.265 328.759,229.163 331.909,228.872 332.154 C 228.582 332.399,227.952 333.028,227.472 333.551 C 225.415 335.795,220.244 339.635,219.436 339.519 L 218.600 339.400 218.499 275.888 C 218.386 205.178,218.156 210.925,221.133 209.970 C 221.940 209.711,222.870 209.292,223.200 209.040 C 223.767 208.606,225.901 207.528,231.400 204.898 C 232.720 204.266,234.160 203.546,234.600 203.297 C 235.040 203.048,236.840 202.141,238.600 201.281 C 243.741 198.769,252.148 194.474,252.800 194.025 C 254.143 193.101,252.387 193.788,248.930 195.540 " stroke="none" fill="#84b4fb" fill-rule="evenodd"></path><path id="path2" d="M0.000 200.000 L 0.000 400.000 200.000 400.000 L 400.000 400.000 400.000 200.000 L 400.000 0.000 200.000 0.000 L 0.000 0.000 0.000 200.000 M208.271 56.433 C 209.992 56.671,211.940 57.187,212.600 57.581 C 213.260 57.974,214.505 58.403,215.368 58.534 C 216.230 58.665,217.040 58.933,217.168 59.130 C 217.295 59.327,218.013 59.803,218.762 60.187 C 219.512 60.571,220.322 61.043,220.562 61.237 C 220.803 61.430,221.566 62.041,222.258 62.594 C 222.950 63.147,223.760 63.597,224.058 63.593 C 225.272 63.576,293.657 132.775,293.524 133.886 C 293.398 134.943,289.485 137.536,287.949 137.581 C 287.591 137.591,287.083 137.858,286.821 138.174 C 286.559 138.490,285.772 138.874,285.072 139.026 C 284.373 139.179,283.371 139.641,282.846 140.052 C 282.321 140.463,281.671 140.800,281.400 140.800 C 281.129 140.800,280.479 141.133,279.954 141.539 C 279.429 141.945,278.510 142.398,277.910 142.544 C 277.311 142.690,276.161 143.258,275.355 143.805 C 274.548 144.352,273.643 144.800,273.344 144.800 C 273.045 144.800,272.800 144.951,272.800 145.136 C 272.800 145.321,272.035 145.716,271.100 146.014 C 270.165 146.312,268.971 146.881,268.446 147.278 C 267.921 147.675,267.181 148.000,266.800 148.000 C 266.419 148.000,265.650 148.360,265.091 148.800 C 264.531 149.240,263.822 149.600,263.515 149.600 C 263.207 149.600,262.345 150.050,261.600 150.600 C 260.855 151.150,259.840 151.600,259.346 151.600 C 258.852 151.600,258.331 151.787,258.190 152.017 C 258.048 152.246,256.553 153.103,254.866 153.922 C 253.180 154.741,251.355 155.723,250.811 156.105 C 250.267 156.487,249.526 156.800,249.165 156.800 C 248.804 156.800,248.079 157.135,247.554 157.545 C 247.029 157.955,246.150 158.429,245.600 158.600 C 245.050 158.771,244.171 159.245,243.646 159.655 C 243.121 160.065,242.294 160.400,241.808 160.400 C 241.322 160.400,240.613 160.744,240.233 161.164 C 239.852 161.584,239.074 162.045,238.502 162.189 C 237.931 162.332,237.035 162.786,236.513 163.197 C 235.990 163.608,235.031 164.061,234.381 164.204 C 233.732 164.347,233.200 164.617,233.200 164.805 C 233.200 164.993,232.795 165.270,232.300 165.421 C 230.911 165.845,226.418 168.047,226.191 168.414 C 226.080 168.594,225.316 168.958,224.494 169.221 C 223.672 169.485,222.730 169.927,222.400 170.203 C 222.070 170.479,221.350 170.841,220.800 171.008 C 220.250 171.174,219.371 171.645,218.846 172.055 C 218.321 172.465,217.494 172.800,217.008 172.800 C 216.522 172.800,215.813 173.144,215.433 173.564 C 215.052 173.984,214.274 174.445,213.702 174.589 C 213.131 174.732,212.235 175.186,211.713 175.597 C 211.190 176.008,210.231 176.461,209.581 176.604 C 208.932 176.747,208.400 177.007,208.400 177.183 C 208.400 177.359,207.815 177.723,207.100 177.991 C 206.385 178.259,204.850 178.935,203.690 179.492 C 200.665 180.945,198.522 180.498,192.800 177.223 C 192.470 177.034,189.140 175.382,185.400 173.551 C 181.660 171.720,178.510 170.106,178.400 169.965 C 178.290 169.823,177.750 169.570,177.200 169.401 C 176.650 169.233,175.722 168.759,175.138 168.348 C 174.554 167.936,173.895 167.600,173.672 167.600 C 173.450 167.600,172.127 166.970,170.734 166.200 C 169.340 165.430,167.930 164.691,167.600 164.559 C 166.097 163.954,150.578 156.214,150.400 155.979 C 150.290 155.835,149.570 155.498,148.800 155.231 C 148.030 154.964,146.500 154.219,145.400 153.574 C 144.300 152.930,142.950 152.197,142.400 151.944 C 138.006 149.930,125.693 143.728,125.271 143.316 C 124.981 143.032,124.488 142.800,124.177 142.800 C 123.509 142.800,118.834 140.429,118.071 139.703 C 117.781 139.426,117.350 139.200,117.113 139.200 C 116.739 139.200,112.305 137.112,110.300 135.991 C 109.915 135.776,109.285 135.447,108.900 135.260 C 108.515 135.072,108.146 134.387,108.080 133.736 C 107.886 131.818,177.880 62.000,179.996 62.000 C 180.201 62.000,180.691 61.662,181.084 61.250 C 181.478 60.837,182.250 60.362,182.800 60.195 C 183.350 60.027,184.229 59.555,184.754 59.145 C 185.279 58.735,186.184 58.400,186.765 58.400 C 187.346 58.400,188.267 58.086,188.811 57.703 C 190.895 56.233,201.717 55.526,208.271 56.433 M83.271 160.929 C 84.520 161.438,85.781 162.052,86.073 162.295 C 86.365 162.537,87.103 162.861,87.712 163.014 C 88.320 163.166,89.039 163.603,89.309 163.985 C 89.579 164.366,90.457 164.800,91.260 164.950 C 92.063 165.099,92.930 165.475,93.187 165.785 C 93.445 166.095,94.184 166.465,94.831 166.607 C 95.478 166.749,96.179 167.186,96.389 167.579 C 96.608 167.988,97.438 168.400,98.334 168.543 C 99.193 168.680,100.114 169.055,100.380 169.376 C 100.646 169.697,101.480 170.162,102.232 170.411 C 102.984 170.659,103.600 171.005,103.600 171.179 C 103.600 171.353,104.426 171.727,105.436 172.010 C 106.446 172.293,107.358 172.746,107.462 173.017 C 107.566 173.288,108.194 173.619,108.858 173.752 C 109.522 173.884,110.525 174.355,111.086 174.796 C 111.648 175.238,112.416 175.600,112.792 175.600 C 113.168 175.600,113.802 175.960,114.200 176.400 C 114.598 176.840,115.211 177.203,115.562 177.206 C 115.913 177.209,116.650 177.466,117.200 177.776 C 117.750 178.086,118.965 178.703,119.900 179.147 C 120.835 179.592,121.600 180.122,121.600 180.326 C 121.600 180.531,122.297 180.809,123.148 180.945 C 123.999 181.081,124.907 181.447,125.164 181.757 C 125.422 182.068,126.106 182.440,126.685 182.586 C 127.263 182.731,128.165 183.186,128.687 183.597 C 129.210 184.008,130.181 184.464,130.846 184.610 C 131.510 184.756,132.149 185.124,132.266 185.427 C 132.382 185.730,133.104 186.096,133.871 186.240 C 134.637 186.383,135.358 186.747,135.473 187.047 C 135.589 187.347,136.403 187.808,137.283 188.072 C 138.163 188.336,138.974 188.787,139.084 189.076 C 139.195 189.364,139.581 189.601,139.943 189.602 C 140.304 189.603,141.320 190.048,142.200 190.590 C 143.080 191.132,144.087 191.581,144.438 191.588 C 144.789 191.594,145.386 191.942,145.764 192.360 C 146.143 192.779,147.052 193.233,147.786 193.371 C 148.519 193.509,149.340 193.886,149.609 194.211 C 149.878 194.535,150.321 194.800,150.593 194.800 C 150.866 194.800,151.751 195.250,152.562 195.800 C 153.372 196.350,154.388 196.800,154.818 196.800 C 155.248 196.800,155.951 197.151,156.379 197.579 C 156.807 198.007,157.869 198.549,158.738 198.783 C 159.607 199.017,160.412 199.454,160.527 199.754 C 160.642 200.054,161.363 200.417,162.129 200.560 C 162.896 200.704,163.618 201.070,163.734 201.373 C 163.851 201.676,164.543 202.052,165.273 202.207 C 166.003 202.362,166.870 202.721,167.200 203.005 C 167.530 203.288,168.475 203.799,169.300 204.140 C 170.125 204.480,170.800 204.948,170.800 205.180 C 170.800 205.411,171.157 205.600,171.594 205.600 C 172.370 205.600,176.808 207.696,178.000 208.625 C 178.330 208.882,179.139 209.221,179.798 209.378 C 180.456 209.536,181.484 210.235,182.081 210.932 L 183.167 212.200 183.184 276.251 C 183.202 348.209,183.501 341.882,180.148 340.601 C 179.134 340.214,178.016 339.560,177.663 339.149 C 177.311 338.737,176.858 338.400,176.657 338.400 C 176.456 338.400,175.895 337.995,175.410 337.500 C 174.925 337.005,173.873 336.060,173.073 335.400 C 172.272 334.740,171.613 333.975,171.609 333.700 C 171.604 333.425,171.349 333.200,171.041 333.200 C 170.439 333.200,168.000 330.622,168.000 329.986 C 168.000 329.774,167.816 329.600,167.591 329.600 C 167.034 329.600,162.800 325.397,162.800 324.843 C 162.800 324.599,162.585 324.400,162.322 324.400 C 161.565 324.400,159.600 322.325,159.600 321.525 C 159.600 321.126,159.413 320.800,159.184 320.800 C 158.630 320.800,152.400 314.586,152.400 314.033 C 152.400 313.795,152.126 313.600,151.791 313.600 C 151.457 313.600,150.978 313.150,150.727 312.600 C 150.477 312.050,150.085 311.600,149.858 311.600 C 149.284 311.600,147.200 309.553,147.200 308.989 C 147.200 308.736,146.750 308.323,146.200 308.073 C 145.650 307.822,145.200 307.343,145.200 307.009 C 145.200 306.674,144.926 306.400,144.590 306.400 C 144.255 306.400,143.809 305.950,143.600 305.400 C 143.391 304.850,142.957 304.400,142.637 304.400 C 142.316 304.400,141.940 304.040,141.800 303.600 C 141.660 303.160,141.360 302.800,141.134 302.800 C 140.637 302.800,138.400 300.467,138.400 299.949 C 138.400 299.748,137.950 299.378,137.400 299.127 C 136.850 298.877,136.400 298.430,136.400 298.136 C 136.400 297.841,136.159 297.600,135.864 297.600 C 135.570 297.600,135.123 297.150,134.873 296.600 C 134.622 296.050,134.252 295.600,134.051 295.600 C 133.533 295.600,131.200 293.363,131.200 292.866 C 131.200 292.640,130.849 292.343,130.420 292.206 C 129.992 292.070,129.530 291.608,129.394 291.180 C 129.257 290.751,128.933 290.396,128.673 290.391 C 128.413 290.387,127.660 289.736,127.000 288.946 C 126.340 288.157,125.575 287.305,125.301 287.055 C 122.880 284.848,122.400 284.341,122.400 283.988 C 122.400 283.765,121.950 283.378,121.400 283.127 C 120.850 282.877,120.400 282.430,120.400 282.136 C 120.400 281.841,120.175 281.596,119.900 281.591 C 119.625 281.587,118.860 280.936,118.200 280.146 C 117.540 279.357,116.775 278.505,116.501 278.255 C 114.242 276.196,113.600 275.572,113.600 275.433 C 113.600 275.345,106.316 267.922,97.414 258.937 C 88.511 249.952,77.562 238.898,73.081 234.373 C 64.921 226.133,61.600 222.382,61.600 221.407 C 61.600 221.120,61.348 220.789,61.040 220.671 C 60.732 220.553,60.260 219.768,59.990 218.928 C 59.720 218.088,59.272 217.130,58.994 216.800 C 58.716 216.470,58.355 215.573,58.192 214.806 C 58.029 214.039,57.641 213.024,57.330 212.550 C 56.768 211.692,56.324 209.750,55.557 204.800 C 55.134 202.069,55.338 197.045,55.996 194.000 C 56.210 193.010,56.486 191.531,56.608 190.713 C 56.731 189.895,57.072 188.985,57.367 188.690 C 57.661 188.396,58.038 187.535,58.203 186.777 C 58.369 186.020,58.841 184.971,59.252 184.446 C 59.663 183.921,60.000 183.156,60.000 182.746 C 60.000 182.336,60.360 181.640,60.800 181.200 C 61.240 180.760,61.600 180.220,61.600 180.000 C 61.600 179.780,61.940 179.260,62.355 178.845 C 62.770 178.430,63.295 177.759,63.522 177.354 C 63.972 176.549,80.439 159.999,80.786 160.002 C 80.904 160.003,82.022 160.420,83.271 160.929 M324.018 164.400 C 326.500 166.820,328.682 168.800,328.866 168.800 C 329.049 168.800,329.200 168.968,329.200 169.172 C 329.200 169.377,331.045 171.413,333.300 173.696 C 335.555 175.980,337.664 178.377,337.988 179.024 C 338.311 179.671,338.894 180.520,339.283 180.911 C 339.672 181.302,340.104 182.112,340.243 182.711 C 340.382 183.310,340.753 184.006,341.066 184.257 C 341.380 184.509,341.746 185.409,341.879 186.257 C 342.013 187.106,342.455 188.229,342.861 188.754 C 343.268 189.279,343.600 190.195,343.600 190.790 C 343.600 191.386,343.869 192.756,344.198 193.836 C 345.090 196.762,345.371 201.804,344.799 204.600 C 344.529 205.920,344.085 208.307,343.812 209.905 C 343.539 211.502,343.020 213.136,342.658 213.536 C 342.296 213.936,342.000 214.744,342.000 215.331 C 342.000 215.919,341.658 216.742,341.241 217.159 C 340.823 217.577,340.357 218.485,340.205 219.178 C 340.053 219.871,339.584 220.653,339.164 220.915 C 338.744 221.178,338.400 221.640,338.400 221.942 C 338.400 222.915,334.508 227.065,319.300 242.309 C 311.105 250.524,304.400 257.403,304.400 257.596 C 304.400 257.788,304.040 258.060,303.600 258.200 C 303.160 258.340,302.800 258.643,302.800 258.873 C 302.800 259.331,300.025 262.000,299.549 262.000 C 299.387 262.000,299.140 262.360,299.000 262.800 C 298.860 263.240,298.488 263.600,298.173 263.600 C 297.858 263.600,297.600 263.874,297.600 264.209 C 297.600 264.543,297.150 265.022,296.600 265.273 C 296.050 265.523,295.600 265.887,295.600 266.082 C 295.600 266.568,291.295 270.800,290.800 270.800 C 290.580 270.800,290.400 270.986,290.400 271.213 C 290.400 271.751,287.751 274.400,287.213 274.400 C 286.986 274.400,286.800 274.594,286.800 274.831 C 286.800 275.393,275.393 286.800,274.831 286.800 C 274.594 286.800,274.400 287.006,274.400 287.257 C 274.400 287.881,271.921 290.390,271.300 290.396 C 271.025 290.398,270.800 290.605,270.800 290.855 C 270.800 291.474,266.726 295.579,266.100 295.591 C 265.825 295.596,265.600 295.813,265.600 296.073 C 265.600 296.333,263.980 298.129,262.000 300.064 C 260.020 301.999,258.400 303.755,258.400 303.964 C 258.400 304.174,258.040 304.460,257.600 304.600 C 257.160 304.740,256.800 305.004,256.800 305.187 C 256.800 305.636,254.013 308.400,253.560 308.400 C 253.362 308.400,253.200 308.601,253.200 308.846 C 253.200 309.339,250.434 312.000,249.922 312.000 C 249.745 312.000,249.600 312.287,249.600 312.637 C 249.600 312.988,249.240 313.369,248.800 313.484 C 248.360 313.599,248.000 313.855,248.000 314.054 C 248.000 314.520,245.245 317.200,244.766 317.200 C 244.565 317.200,244.396 317.425,244.391 317.700 C 244.387 317.975,243.736 318.740,242.946 319.400 C 242.157 320.060,241.305 320.854,241.055 321.164 C 240.805 321.475,239.835 322.506,238.900 323.457 C 237.965 324.408,237.200 325.271,237.200 325.374 C 237.200 325.610,233.224 329.600,232.989 329.600 C 232.894 329.600,232.070 330.410,231.157 331.400 C 230.245 332.390,229.251 333.200,228.949 333.200 C 228.647 333.200,228.400 333.416,228.400 333.681 C 228.400 334.337,225.969 336.800,225.322 336.800 C 225.035 336.800,224.800 337.074,224.800 337.410 C 224.800 337.745,224.365 338.185,223.832 338.388 C 223.300 338.590,222.715 339.006,222.532 339.312 C 221.898 340.374,218.081 341.452,217.393 340.764 C 216.308 339.679,216.509 212.130,217.597 211.116 C 218.039 210.705,218.400 210.203,218.400 210.000 C 218.400 209.797,219.120 209.437,220.000 209.200 C 220.880 208.963,221.600 208.603,221.600 208.401 C 221.600 208.198,222.361 207.804,223.290 207.526 C 224.220 207.247,225.300 206.700,225.690 206.310 C 226.081 205.919,226.940 205.600,227.600 205.600 C 228.260 205.600,228.800 205.437,228.800 205.238 C 228.800 204.733,232.735 202.565,234.259 202.231 C 234.951 202.079,235.834 201.605,236.221 201.177 C 236.607 200.750,237.232 200.400,237.608 200.400 C 237.984 200.400,238.736 200.051,239.278 199.625 C 239.820 199.198,240.789 198.723,241.432 198.568 C 242.074 198.414,242.922 197.953,243.316 197.544 C 243.709 197.135,244.360 196.800,244.762 196.800 C 245.163 196.800,245.921 196.465,246.446 196.055 C 246.971 195.645,247.850 195.174,248.400 195.008 C 248.950 194.841,249.670 194.471,250.000 194.184 C 250.330 193.897,251.140 193.534,251.800 193.377 C 252.460 193.221,253.305 192.828,253.678 192.504 C 254.796 191.534,258.935 189.603,259.900 189.602 C 260.411 189.601,260.800 189.354,260.800 189.031 C 260.800 188.718,261.475 188.245,262.300 187.980 C 263.125 187.716,264.070 187.266,264.400 186.981 C 264.730 186.696,265.521 186.332,266.158 186.173 C 266.795 186.014,267.650 185.550,268.058 185.142 C 268.466 184.734,269.222 184.400,269.739 184.400 C 270.255 184.400,271.087 184.045,271.586 183.612 C 272.086 183.178,272.879 182.704,273.348 182.557 C 273.816 182.410,274.629 181.955,275.154 181.545 C 275.679 181.135,276.506 180.800,276.992 180.800 C 277.478 180.800,278.193 180.450,278.579 180.023 C 278.966 179.595,279.792 179.134,280.414 178.997 C 281.036 178.860,281.755 178.495,282.013 178.185 C 282.270 177.875,283.081 177.509,283.814 177.371 C 284.548 177.233,285.448 176.789,285.815 176.383 C 286.183 175.977,286.992 175.534,287.614 175.397 C 288.236 175.260,288.955 174.895,289.213 174.585 C 289.470 174.275,290.280 173.909,291.012 173.771 C 291.745 173.634,292.440 173.274,292.556 172.971 C 292.672 172.668,293.572 172.217,294.556 171.969 C 295.540 171.721,296.433 171.290,296.540 171.011 C 296.648 170.731,297.231 170.379,297.836 170.227 C 298.442 170.075,299.380 169.602,299.922 169.175 C 300.464 168.749,301.327 168.400,301.838 168.400 C 302.350 168.400,303.091 168.055,303.484 167.632 C 303.878 167.210,304.721 166.734,305.358 166.575 C 305.995 166.415,306.850 165.950,307.258 165.542 C 307.666 165.134,308.497 164.800,309.104 164.800 C 309.765 164.800,310.403 164.487,310.695 164.020 C 310.963 163.591,311.816 163.121,312.591 162.975 C 313.366 162.830,314.000 162.563,314.000 162.382 C 314.000 161.984,317.934 160.080,318.852 160.033 C 319.211 160.015,321.536 161.980,324.018 164.400 " stroke="none" fill="#fbfbfc" fill-rule="evenodd"></path><path id="path3" d="M72.848 169.735 C 63.255 179.322,60.835 182.734,58.338 190.200 C 57.267 193.403,56.893 208.452,57.855 209.639 C 58.106 209.947,58.544 211.255,58.829 212.545 C 59.114 213.835,59.551 215.095,59.801 215.345 C 60.050 215.595,60.460 216.393,60.713 217.119 C 60.965 217.844,61.538 218.903,61.986 219.473 C 62.434 220.042,62.800 220.689,62.800 220.911 C 62.800 221.733,66.945 226.167,81.204 240.600 C 89.245 248.740,99.959 259.593,105.012 264.719 C 130.567 290.639,175.433 335.784,176.400 336.550 C 176.730 336.811,177.760 337.536,178.689 338.160 C 181.877 340.300,181.600 346.235,181.600 275.734 L 181.600 212.644 180.525 211.522 C 179.934 210.905,179.278 210.400,179.067 210.400 C 178.719 210.400,174.478 208.362,172.000 207.004 C 171.450 206.703,168.210 205.080,164.800 203.397 C 161.390 201.714,157.430 199.748,156.000 199.028 C 154.570 198.308,152.230 197.139,150.800 196.430 C 149.370 195.722,147.750 194.892,147.200 194.586 C 146.650 194.280,144.981 193.438,143.492 192.715 C 140.560 191.291,123.382 182.585,122.400 182.025 C 122.070 181.836,118.064 179.846,113.499 177.601 C 108.933 175.356,105.097 173.357,104.975 173.160 C 104.853 172.962,104.448 172.797,104.076 172.794 C 103.704 172.791,102.950 172.538,102.400 172.232 C 100.541 171.199,82.205 162.090,81.560 161.880 C 81.119 161.736,78.404 164.184,72.848 169.735 M313.886 163.494 C 311.953 164.490,310.458 165.392,310.565 165.498 C 310.671 165.604,311.352 165.331,312.079 164.891 C 312.806 164.451,313.850 163.956,314.400 163.791 C 314.950 163.625,315.829 163.155,316.354 162.745 C 318.181 161.318,319.162 161.724,323.016 165.500 C 324.981 167.425,326.231 168.551,325.794 168.002 C 325.357 167.452,323.748 165.787,322.218 164.302 C 318.871 161.052,318.664 161.032,313.886 163.494 M82.562 163.400 C 83.156 163.950,84.039 164.400,84.524 164.400 C 85.010 164.400,85.632 164.760,85.907 165.200 C 86.182 165.640,86.831 166.000,87.349 166.000 C 87.868 166.000,88.750 166.360,89.309 166.800 C 89.869 167.240,90.589 167.600,90.909 167.600 C 91.230 167.600,91.980 167.984,92.576 168.452 C 93.172 168.921,94.456 169.395,95.430 169.505 C 96.821 169.661,97.200 169.864,97.200 170.452 C 97.200 170.927,97.485 171.200,97.979 171.200 C 98.408 171.200,99.244 171.650,99.838 172.200 C 100.610 172.916,101.366 173.200,102.496 173.200 C 103.738 173.200,104.119 173.370,104.284 174.000 C 104.405 174.462,104.830 174.800,105.289 174.800 C 105.726 174.800,106.619 175.250,107.273 175.800 C 107.927 176.350,108.768 176.800,109.142 176.800 C 109.516 176.800,110.130 177.160,110.507 177.600 C 110.884 178.040,111.668 178.400,112.250 178.400 C 112.865 178.400,113.697 178.819,114.235 179.400 C 114.819 180.030,115.597 180.400,116.338 180.400 C 116.985 180.400,117.612 180.653,117.730 180.962 C 117.849 181.272,118.543 181.645,119.273 181.792 C 121.604 182.262,122.000 182.442,122.000 183.027 C 122.000 183.342,122.346 183.600,122.769 183.600 C 123.192 183.600,124.073 184.050,124.727 184.600 C 125.572 185.311,126.390 185.600,127.558 185.600 C 128.933 185.600,129.200 185.730,129.200 186.400 C 129.200 186.905,129.467 187.200,129.922 187.200 C 130.320 187.200,131.255 187.650,132.000 188.200 C 132.745 188.750,133.730 189.200,134.189 189.200 C 134.647 189.200,135.330 189.560,135.707 190.000 C 136.084 190.440,136.818 190.800,137.338 190.800 C 137.858 190.800,138.769 191.250,139.362 191.800 C 139.956 192.350,140.749 192.800,141.124 192.800 C 141.500 192.800,142.032 193.160,142.307 193.600 C 142.699 194.227,143.240 194.400,144.813 194.400 C 146.586 194.400,146.864 194.517,147.200 195.400 C 147.409 195.950,147.855 196.400,148.190 196.400 C 148.526 196.400,149.160 196.760,149.600 197.200 C 150.040 197.640,150.850 198.000,151.400 198.000 C 151.950 198.000,152.760 198.360,153.200 198.800 C 153.640 199.240,154.451 199.600,155.003 199.600 C 155.574 199.600,156.380 200.031,156.875 200.600 C 157.353 201.150,158.153 201.600,158.652 201.600 C 159.152 201.600,159.718 201.882,159.911 202.227 C 160.104 202.572,161.047 203.030,162.007 203.246 C 162.966 203.462,163.997 203.989,164.298 204.419 C 164.599 204.849,165.242 205.200,165.726 205.200 C 166.211 205.200,166.832 205.560,167.107 206.000 C 167.495 206.621,168.040 206.800,169.539 206.800 C 171.212 206.800,171.533 206.934,171.927 207.800 C 172.178 208.350,172.703 208.800,173.095 208.800 C 173.487 208.800,174.032 209.160,174.307 209.600 C 174.617 210.097,175.240 210.400,175.949 210.400 C 176.578 210.400,177.522 210.738,178.048 211.152 C 178.573 211.565,179.363 211.973,179.802 212.057 C 180.595 212.210,180.601 212.615,180.701 275.071 L 180.802 337.931 179.601 337.478 C 178.941 337.229,178.400 336.886,178.400 336.717 C 178.400 336.548,177.725 335.976,176.900 335.446 C 175.449 334.514,162.239 321.419,159.533 318.230 C 158.800 317.366,155.095 313.552,151.300 309.754 C 147.505 305.956,144.400 302.658,144.400 302.424 C 144.400 302.191,144.214 302.000,143.987 302.000 C 143.449 302.000,140.800 299.351,140.800 298.813 C 140.800 298.586,140.513 298.400,140.163 298.400 C 139.812 298.400,139.437 298.062,139.329 297.649 C 139.221 297.236,138.697 296.699,138.166 296.457 C 137.635 296.215,137.200 295.743,137.200 295.409 C 137.200 295.074,137.020 294.800,136.800 294.800 C 136.580 294.800,134.600 293.000,132.400 290.800 C 130.200 288.600,128.400 286.620,128.400 286.400 C 128.400 286.180,128.214 286.000,127.987 286.000 C 127.449 286.000,124.800 283.351,124.800 282.813 C 124.800 282.586,124.513 282.400,124.163 282.400 C 123.812 282.400,123.437 282.062,123.329 281.649 C 123.221 281.236,122.697 280.699,122.166 280.457 C 121.635 280.215,121.200 279.743,121.200 279.409 C 121.200 279.074,121.016 278.800,120.791 278.800 C 120.270 278.800,114.000 272.514,114.000 271.991 C 114.000 271.776,113.713 271.600,113.363 271.600 C 113.012 271.600,112.633 271.246,112.519 270.813 C 112.406 270.381,111.992 269.925,111.600 269.800 C 111.208 269.675,110.794 269.219,110.681 268.787 C 110.567 268.354,110.188 268.000,109.837 268.000 C 109.487 268.000,109.200 267.726,109.200 267.390 C 109.200 267.055,108.775 266.618,108.255 266.421 C 107.735 266.223,107.212 265.688,107.092 265.231 C 106.973 264.774,106.600 264.400,106.264 264.400 C 105.929 264.400,105.546 264.059,105.414 263.643 C 105.282 263.227,104.819 262.794,104.387 262.681 C 103.954 262.567,103.600 262.217,103.600 261.902 C 103.600 261.586,103.150 261.123,102.600 260.873 C 102.050 260.622,101.600 260.164,101.600 259.855 C 101.600 259.546,101.240 259.199,100.800 259.084 C 100.360 258.969,100.000 258.600,100.000 258.264 C 100.000 257.929,99.640 257.540,99.200 257.400 C 98.760 257.260,98.400 256.871,98.400 256.536 C 98.400 256.200,98.055 255.835,97.634 255.725 C 97.213 255.615,96.759 255.091,96.626 254.562 C 96.493 254.033,96.161 253.600,95.889 253.600 C 95.616 253.600,95.168 253.240,94.893 252.800 C 94.618 252.360,94.125 252.000,93.797 252.000 C 93.468 252.000,93.198 251.775,93.196 251.500 C 93.190 250.879,90.681 248.400,90.057 248.400 C 89.806 248.400,89.600 248.229,89.600 248.021 C 89.600 247.812,89.150 247.156,88.600 246.562 C 88.050 245.969,87.600 245.329,87.600 245.142 C 87.600 244.954,87.240 244.800,86.800 244.800 C 86.360 244.800,86.000 244.559,86.000 244.265 C 86.000 243.971,85.195 243.026,84.211 242.165 C 83.227 241.304,82.417 240.375,82.411 240.100 C 82.405 239.825,82.043 239.600,81.608 239.600 C 81.096 239.600,80.726 239.246,80.564 238.600 C 80.426 238.050,80.063 237.600,79.757 237.600 C 79.450 237.600,79.200 237.326,79.200 236.990 C 79.200 236.655,78.775 236.218,78.255 236.021 C 77.735 235.823,77.212 235.288,77.092 234.831 C 76.973 234.374,76.588 234.000,76.237 234.000 C 75.887 234.000,75.600 233.726,75.600 233.391 C 75.600 233.057,75.150 232.578,74.600 232.327 C 74.050 232.077,73.600 231.650,73.600 231.379 C 73.600 231.108,73.150 230.774,72.600 230.636 C 72.050 230.498,71.600 230.126,71.600 229.811 C 71.600 229.152,69.994 227.437,69.031 227.067 C 68.674 226.930,68.276 226.541,68.146 226.203 C 67.820 225.355,65.767 223.200,65.284 223.200 C 65.067 223.200,64.771 222.570,64.626 221.800 C 64.477 221.006,64.126 220.400,63.814 220.400 C 63.511 220.400,63.145 219.859,62.999 219.197 C 62.854 218.535,62.390 217.809,61.967 217.583 C 61.468 217.315,61.200 216.745,61.200 215.948 C 61.200 215.091,60.977 214.667,60.454 214.530 C 59.710 214.335,59.200 211.762,59.200 208.203 C 59.200 207.432,58.882 206.637,58.400 206.200 C 57.235 205.146,57.205 197.330,58.360 195.684 C 58.894 194.922,59.189 193.604,59.352 191.243 C 59.542 188.489,59.729 187.785,60.392 187.321 C 60.836 187.009,61.200 186.358,61.200 185.874 C 61.200 185.389,61.560 184.768,62.000 184.493 C 62.440 184.218,62.800 183.661,62.800 183.255 C 62.800 182.849,63.250 182.031,63.800 181.438 C 64.350 180.844,64.800 179.918,64.800 179.379 C 64.800 178.667,65.018 178.400,65.600 178.400 C 66.065 178.400,66.400 178.133,66.400 177.763 C 66.400 177.412,66.745 177.035,67.166 176.925 C 67.587 176.815,68.041 176.291,68.174 175.762 C 68.307 175.233,68.653 174.800,68.943 174.800 C 69.234 174.800,69.677 174.350,69.927 173.800 C 70.178 173.250,70.657 172.800,70.991 172.800 C 71.326 172.800,71.600 172.513,71.600 172.163 C 71.600 171.812,71.954 171.433,72.387 171.319 C 72.819 171.206,73.282 170.773,73.414 170.357 C 73.546 169.941,73.848 169.600,74.084 169.600 C 74.673 169.600,77.190 167.113,77.196 166.527 C 77.198 166.267,77.560 165.940,78.000 165.800 C 78.440 165.660,78.800 165.288,78.800 164.973 C 78.800 164.658,79.074 164.400,79.410 164.400 C 79.745 164.400,80.191 163.950,80.400 163.400 C 80.609 162.850,80.938 162.400,81.132 162.400 C 81.325 162.400,81.969 162.850,82.562 163.400 M305.600 167.800 C 304.610 168.330,303.980 168.764,304.200 168.764 C 304.420 168.764,305.410 168.330,306.400 167.800 C 307.390 167.270,308.020 166.836,307.800 166.836 C 307.580 166.836,306.590 167.270,305.600 167.800 M301.944 169.624 L 301.000 170.447 302.200 169.745 C 303.779 168.820,303.803 168.800,303.311 168.800 C 303.079 168.800,302.464 169.171,301.944 169.624 M327.234 169.376 C 327.545 169.803,329.566 171.963,331.725 174.176 C 333.884 176.389,336.386 179.328,337.285 180.707 C 338.184 182.085,338.993 183.140,339.082 183.051 C 339.496 182.637,335.574 177.748,331.341 173.400 C 328.771 170.760,326.923 168.949,327.234 169.376 M297.800 171.652 C 296.480 172.326,295.873 172.773,296.451 172.644 C 297.568 172.395,301.277 170.404,300.600 170.417 C 300.380 170.422,299.120 170.977,297.800 171.652 M293.800 173.627 C 293.140 174.050,292.805 174.397,293.056 174.398 C 293.306 174.399,293.936 174.046,294.456 173.613 C 295.645 172.623,295.359 172.629,293.800 173.627 M290.200 175.410 C 289.320 175.952,288.780 176.396,289.000 176.396 C 289.220 176.396,290.120 175.952,291.000 175.410 C 291.880 174.868,292.420 174.425,292.200 174.425 C 291.980 174.425,291.080 174.868,290.200 175.410 M286.200 177.410 C 285.320 177.952,284.780 178.396,285.000 178.396 C 285.220 178.396,286.120 177.952,287.000 177.410 C 287.880 176.868,288.420 176.425,288.200 176.425 C 287.980 176.425,287.080 176.868,286.200 177.410 M281.019 180.029 C 279.269 180.893,278.034 181.600,278.274 181.600 C 278.907 181.600,283.958 179.191,284.223 178.762 C 284.517 178.287,284.669 178.227,281.019 180.029 M273.800 183.790 C 271.710 185.077,272.214 185.089,274.459 183.805 C 275.417 183.257,276.020 182.808,275.800 182.807 C 275.580 182.805,274.680 183.248,273.800 183.790 M269.400 185.810 C 267.325 187.088,267.827 187.082,270.238 185.800 C 271.273 185.250,271.867 184.806,271.560 184.812 C 271.252 184.819,270.280 185.268,269.400 185.810 M339.609 185.076 C 339.604 185.338,339.793 185.672,340.028 185.817 C 340.263 185.963,340.612 186.468,340.803 186.941 C 341.006 187.445,341.156 187.552,341.166 187.200 C 341.175 186.870,340.830 186.150,340.400 185.600 C 339.970 185.050,339.614 184.814,339.609 185.076 M266.000 187.600 C 265.450 188.030,265.152 188.386,265.337 188.391 C 265.522 188.396,266.131 188.040,266.691 187.600 C 267.250 187.160,267.549 186.804,267.354 186.809 C 267.159 186.814,266.550 187.170,266.000 187.600 M341.226 188.403 C 341.212 188.734,341.400 189.634,341.645 190.403 C 341.889 191.171,342.321 192.880,342.605 194.200 C 342.965 195.870,343.134 196.228,343.161 195.378 C 343.182 194.705,342.762 192.725,342.226 190.978 C 341.691 189.230,341.241 188.071,341.226 188.403 M261.800 189.627 C 261.140 190.050,260.780 190.396,261.000 190.395 C 261.220 190.395,261.940 190.037,262.600 189.600 C 263.260 189.163,263.620 188.817,263.400 188.832 C 263.180 188.847,262.460 189.204,261.800 189.627 M257.280 191.875 C 255.894 192.655,254.834 193.367,254.924 193.457 C 255.064 193.598,259.902 191.028,260.367 190.566 C 260.900 190.036,259.468 190.643,257.280 191.875 M249.800 195.629 C 245.728 197.839,245.435 198.226,249.255 196.350 C 253.328 194.350,254.642 193.599,254.000 193.638 C 253.670 193.658,251.780 194.554,249.800 195.629 M243.800 198.610 C 242.920 199.152,242.380 199.596,242.600 199.596 C 242.820 199.596,243.720 199.152,244.600 198.610 C 245.480 198.068,246.020 197.625,245.800 197.625 C 245.580 197.625,244.680 198.068,243.800 198.610 M343.340 200.800 C 343.340 202.670,343.409 203.435,343.493 202.500 C 343.577 201.565,343.577 200.035,343.493 199.100 C 343.409 198.165,343.340 198.930,343.340 200.800 M238.300 201.429 C 236.749 202.270,236.925 202.561,238.500 201.759 C 240.008 200.993,240.275 200.794,239.767 200.816 C 239.565 200.825,238.905 201.101,238.300 201.429 M234.000 203.600 C 233.450 204.030,233.152 204.386,233.337 204.391 C 233.522 204.396,234.131 204.040,234.691 203.600 C 235.250 203.160,235.549 202.804,235.354 202.809 C 235.159 202.814,234.550 203.170,234.000 203.600 M230.000 205.600 C 229.230 206.022,228.870 206.370,229.200 206.374 C 229.530 206.379,230.250 206.030,230.800 205.600 C 232.057 204.617,231.796 204.617,230.000 205.600 M342.525 207.600 C 341.636 211.720,341.613 212.202,342.423 209.800 C 342.867 208.480,343.179 206.950,343.116 206.400 C 343.037 205.721,342.847 206.107,342.525 207.600 M225.800 207.627 C 224.455 208.489,224.639 208.638,226.181 207.936 C 226.742 207.680,227.200 207.320,227.200 207.136 C 227.200 206.718,227.243 206.703,225.800 207.627 M218.595 275.600 C 218.595 310.030,218.642 324.115,218.700 306.900 C 218.758 289.685,218.758 261.515,218.700 244.300 C 218.642 227.085,218.595 241.170,218.595 275.600 M340.279 215.574 C 339.304 217.225,339.453 217.651,340.457 216.083 C 340.920 215.359,341.223 214.690,341.129 214.596 C 341.035 214.502,340.652 214.942,340.279 215.574 M338.491 218.949 C 338.001 219.664,337.600 220.415,337.600 220.618 C 337.600 220.820,338.066 220.300,338.636 219.462 C 339.205 218.624,339.606 217.873,339.527 217.793 C 339.447 217.714,338.981 218.234,338.491 218.949 M326.706 232.700 C 306.998 252.513,300.366 259.320,299.972 260.137 C 299.563 260.985,299.567 260.986,300.184 260.200 C 300.530 259.760,304.725 255.440,309.507 250.600 C 314.290 245.760,322.160 237.795,326.998 232.900 C 331.835 228.005,335.696 224.000,335.576 224.000 C 335.457 224.000,331.465 227.915,326.706 232.700 M293.200 266.600 C 290.016 269.790,287.505 272.400,287.620 272.400 C 287.829 272.400,297.881 262.507,298.811 261.387 C 300.187 259.729,298.423 261.368,293.200 266.600 M283.000 276.910 C 280.800 279.145,278.748 281.339,278.440 281.786 C 278.132 282.234,278.957 281.520,280.272 280.200 C 281.588 278.880,283.811 276.675,285.212 275.300 C 286.613 273.925,287.588 272.811,287.379 272.824 C 287.171 272.837,285.200 274.676,283.000 276.910 M275.540 284.419 C 274.517 285.509,273.819 286.400,273.989 286.400 C 274.321 286.400,277.600 282.957,277.600 282.609 C 277.600 282.252,277.453 282.381,275.540 284.419 M264.706 295.331 C 253.822 306.246,248.203 312.000,248.428 312.000 C 248.526 312.000,254.265 306.330,261.181 299.400 C 268.097 292.470,273.633 286.800,273.484 286.800 C 273.335 286.800,269.385 290.639,264.706 295.331 M244.412 315.788 C 242.559 317.651,241.123 319.228,241.221 319.292 C 241.319 319.356,242.919 317.831,244.775 315.904 C 246.632 313.977,248.068 312.400,247.967 312.400 C 247.865 312.400,246.266 313.924,244.412 315.788 M236.365 324.141 C 234.734 325.759,233.047 327.514,232.616 328.041 C 232.185 328.569,233.580 327.294,235.716 325.208 C 237.852 323.122,239.600 321.367,239.600 321.308 C 239.600 320.993,239.075 321.453,236.365 324.141 M227.000 333.374 C 224.580 335.779,223.416 337.094,224.414 336.296 C 225.412 335.498,226.700 334.315,227.276 333.668 C 227.853 333.021,228.476 332.424,228.662 332.340 C 229.176 332.110,231.770 329.227,231.573 329.106 C 231.478 329.048,229.420 330.968,227.000 333.374 M221.218 338.444 C 220.636 338.928,219.865 339.191,219.330 339.089 C 218.832 338.993,218.519 339.070,218.636 339.258 C 219.033 339.901,220.354 339.601,221.478 338.613 C 222.828 337.425,222.611 337.285,221.218 338.444 " stroke="none" fill="#6ca4fc" fill-rule="evenodd"></path><path id="path4" d="M192.800 56.545 C 191.150 56.798,189.355 57.319,188.811 57.703 C 188.267 58.086,187.346 58.400,186.765 58.400 C 186.184 58.400,185.279 58.735,184.754 59.145 C 184.229 59.555,183.350 60.027,182.800 60.195 C 182.250 60.362,181.478 60.837,181.084 61.250 C 180.691 61.662,180.201 62.000,179.996 62.000 C 177.880 62.000,107.886 131.818,108.080 133.736 C 108.146 134.387,108.515 135.072,108.900 135.260 C 109.285 135.447,109.915 135.776,110.300 135.991 C 112.305 137.112,116.739 139.200,117.113 139.200 C 117.350 139.200,117.781 139.426,118.071 139.703 C 118.834 140.429,123.509 142.800,124.177 142.800 C 124.488 142.800,124.981 143.032,125.271 143.316 C 125.693 143.728,138.006 149.930,142.400 151.944 C 142.950 152.197,144.300 152.930,145.400 153.574 C 146.500 154.219,148.030 154.964,148.800 155.231 C 149.570 155.498,150.290 155.835,150.400 155.979 C 150.578 156.214,166.097 163.954,167.600 164.559 C 167.930 164.691,169.340 165.430,170.734 166.200 C 172.127 166.970,173.450 167.600,173.672 167.600 C 173.895 167.600,174.554 167.936,175.138 168.348 C 175.722 168.759,176.650 169.233,177.200 169.401 C 177.750 169.570,178.290 169.823,178.400 169.965 C 178.510 170.106,181.660 171.720,185.400 173.551 C 189.140 175.382,192.470 177.034,192.800 177.223 C 198.522 180.498,200.665 180.945,203.690 179.492 C 204.850 178.935,206.385 178.259,207.100 177.991 C 207.815 177.723,208.400 177.359,208.400 177.183 C 208.400 177.007,208.932 176.747,209.581 176.604 C 210.231 176.461,211.190 176.008,211.713 175.597 C 212.235 175.186,213.131 174.732,213.702 174.589 C 214.274 174.445,215.052 173.984,215.433 173.564 C 215.813 173.144,216.522 172.800,217.008 172.800 C 217.494 172.800,218.321 172.465,218.846 172.055 C 219.371 171.645,220.250 171.174,220.800 171.008 C 221.350 170.841,222.070 170.479,222.400 170.203 C 222.730 169.927,223.672 169.485,224.494 169.221 C 225.316 168.958,226.080 168.594,226.191 168.414 C 226.418 168.047,230.911 165.845,232.300 165.421 C 232.795 165.270,233.200 164.993,233.200 164.805 C 233.200 164.617,233.732 164.347,234.381 164.204 C 235.031 164.061,235.990 163.608,236.513 163.197 C 237.035 162.786,237.931 162.332,238.502 162.189 C 239.074 162.045,239.852 161.584,240.233 161.164 C 240.613 160.744,241.322 160.400,241.808 160.400 C 242.294 160.400,243.121 160.065,243.646 159.655 C 244.171 159.245,245.050 158.771,245.600 158.600 C 246.150 158.429,247.029 157.955,247.554 157.545 C 248.079 157.135,248.804 156.800,249.165 156.800 C 249.526 156.800,250.267 156.487,250.811 156.105 C 251.355 155.723,253.180 154.741,254.866 153.922 C 256.553 153.103,258.048 152.246,258.190 152.017 C 258.331 151.787,258.852 151.600,259.346 151.600 C 259.840 151.600,260.855 151.150,261.600 150.600 C 262.345 150.050,263.207 149.600,263.515 149.600 C 263.822 149.600,264.531 149.240,265.091 148.800 C 265.650 148.360,266.419 148.000,266.800 148.000 C 267.181 148.000,267.921 147.675,268.446 147.278 C 268.971 146.881,270.165 146.312,271.100 146.014 C 272.035 145.716,272.800 145.321,272.800 145.136 C 272.800 144.951,273.045 144.800,273.344 144.800 C 273.643 144.800,274.548 144.352,275.355 143.805 C 276.161 143.258,277.311 142.690,277.910 142.544 C 278.510 142.398,279.429 141.945,279.954 141.539 C 280.479 141.133,281.129 140.800,281.400 140.800 C 281.671 140.800,282.321 140.463,282.846 140.052 C 283.371 139.641,284.373 139.179,285.072 139.026 C 285.772 138.874,286.559 138.490,286.821 138.174 C 287.083 137.858,287.591 137.591,287.949 137.581 C 289.485 137.536,293.398 134.943,293.524 133.886 C 293.657 132.775,225.272 63.576,224.058 63.593 C 223.760 63.597,222.950 63.147,222.258 62.594 C 221.566 62.041,220.803 61.430,220.562 61.237 C 220.322 61.043,219.512 60.571,218.762 60.187 C 218.013 59.803,217.295 59.327,217.168 59.130 C 217.040 58.933,216.230 58.665,215.368 58.534 C 214.505 58.403,213.260 57.974,212.600 57.581 C 210.108 56.095,199.388 55.534,192.800 56.545 M207.600 57.604 C 211.337 58.343,215.075 59.564,217.200 60.741 C 218.410 61.411,219.850 62.191,220.400 62.474 C 220.950 62.756,221.635 63.305,221.923 63.694 C 222.210 64.082,222.685 64.400,222.977 64.400 C 223.612 64.400,291.088 131.870,291.819 133.236 C 292.310 134.152,292.235 134.224,289.463 135.504 C 287.888 136.231,286.330 137.001,286.000 137.216 C 285.670 137.430,284.950 137.811,284.400 138.061 C 282.754 138.811,274.647 142.811,274.000 143.192 C 273.670 143.387,272.230 144.106,270.800 144.791 C 269.370 145.476,267.930 146.201,267.600 146.403 C 267.270 146.604,265.650 147.341,264.000 148.039 C 262.350 148.738,260.571 149.645,260.046 150.055 C 259.521 150.465,258.829 150.800,258.508 150.800 C 258.186 150.800,257.435 151.148,256.837 151.573 C 256.240 151.999,255.222 152.472,254.576 152.626 C 253.929 152.779,253.040 153.221,252.600 153.607 C 252.160 153.992,251.358 154.442,250.819 154.607 C 250.279 154.771,249.591 155.152,249.291 155.452 C 248.990 155.753,248.262 156.113,247.672 156.253 C 247.082 156.393,246.330 156.727,246.000 156.996 C 245.670 157.265,243.420 158.413,241.000 159.547 C 238.580 160.682,236.330 161.782,236.000 161.993 C 235.331 162.420,231.357 164.385,229.200 165.355 C 228.430 165.701,227.530 166.140,227.200 166.330 C 225.356 167.393,223.023 168.573,220.200 169.870 C 218.880 170.477,217.567 171.199,217.282 171.476 C 216.997 171.753,216.097 172.176,215.282 172.417 C 214.467 172.658,213.080 173.274,212.200 173.787 C 209.138 175.571,204.989 177.600,204.396 177.603 C 204.068 177.604,203.260 177.963,202.600 178.400 C 200.817 179.581,197.950 179.012,194.400 176.773 C 194.070 176.565,193.350 176.196,192.800 175.954 C 192.250 175.712,191.530 175.353,191.200 175.154 C 190.870 174.956,189.250 174.154,187.600 173.372 C 185.950 172.589,184.330 171.778,184.000 171.569 C 183.670 171.361,182.655 170.847,181.744 170.428 C 180.833 170.009,179.968 169.471,179.820 169.233 C 179.673 168.995,179.248 168.797,178.876 168.794 C 178.504 168.791,177.809 168.566,177.330 168.294 C 176.852 168.022,175.052 167.104,173.330 166.253 C 171.609 165.402,169.930 164.556,169.600 164.374 C 169.270 164.192,166.930 163.023,164.400 161.777 C 161.870 160.530,159.530 159.355,159.200 159.164 C 158.870 158.974,157.250 158.173,155.600 157.385 C 153.950 156.597,152.330 155.780,152.000 155.571 C 151.670 155.361,150.680 154.826,149.800 154.381 C 148.920 153.937,147.750 153.312,147.200 152.992 C 146.650 152.673,145.896 152.409,145.524 152.406 C 145.152 152.403,144.739 152.225,144.607 152.011 C 144.474 151.797,142.842 150.877,140.980 149.967 C 139.117 149.057,137.507 148.173,137.401 148.002 C 137.295 147.831,136.583 147.573,135.817 147.430 C 135.052 147.286,134.195 146.949,133.913 146.681 C 133.173 145.979,128.488 143.600,127.843 143.600 C 127.543 143.600,127.082 143.339,126.817 143.020 C 126.552 142.702,125.675 142.226,124.868 141.962 C 124.061 141.699,123.310 141.372,123.200 141.234 C 123.090 141.096,121.740 140.387,120.200 139.658 C 118.660 138.929,116.950 138.088,116.400 137.790 C 114.335 136.672,110.575 134.851,109.900 134.642 C 108.190 134.112,109.173 132.822,117.347 124.864 C 119.077 123.179,121.147 121.098,121.947 120.240 C 122.746 119.383,123.636 118.483,123.925 118.240 C 124.214 117.998,124.934 117.273,125.525 116.629 C 126.931 115.098,127.574 114.458,129.229 112.949 C 129.983 112.262,132.796 109.472,135.479 106.749 C 138.163 104.027,141.763 100.413,143.479 98.718 C 145.196 97.023,152.702 89.509,160.161 82.019 C 167.619 74.530,174.279 67.975,174.961 67.453 C 175.642 66.930,176.650 66.068,177.200 65.537 C 178.520 64.263,183.559 60.956,184.700 60.615 C 185.195 60.467,185.600 60.202,185.600 60.025 C 185.600 59.848,186.455 59.488,187.500 59.223 C 188.545 58.959,190.300 58.493,191.400 58.187 C 194.897 57.217,203.987 56.889,207.600 57.604 M72.253 168.309 C 67.677 172.879,63.748 176.949,63.522 177.354 C 63.295 177.759,62.770 178.430,62.355 178.845 C 61.940 179.260,61.600 179.780,61.600 180.000 C 61.600 180.220,61.240 180.760,60.800 181.200 C 60.360 181.640,60.000 182.336,60.000 182.746 C 60.000 183.156,59.663 183.921,59.252 184.446 C 58.841 184.971,58.369 186.020,58.203 186.777 C 58.038 187.535,57.661 188.396,57.367 188.690 C 57.072 188.985,56.731 189.895,56.608 190.713 C 56.486 191.531,56.210 193.010,55.996 194.000 C 55.338 197.045,55.134 202.069,55.557 204.800 C 56.324 209.750,56.768 211.692,57.330 212.550 C 57.641 213.024,58.029 214.039,58.192 214.806 C 58.355 215.573,58.716 216.470,58.994 216.800 C 59.272 217.130,59.720 218.088,59.990 218.928 C 60.260 219.768,60.732 220.553,61.040 220.671 C 61.348 220.789,61.600 221.120,61.600 221.407 C 61.600 222.382,64.921 226.133,73.081 234.373 C 77.562 238.898,88.511 249.952,97.414 258.937 C 106.316 267.922,113.600 275.345,113.600 275.433 C 113.600 275.572,114.242 276.196,116.501 278.255 C 116.775 278.505,117.540 279.357,118.200 280.146 C 118.860 280.936,119.625 281.587,119.900 281.591 C 120.175 281.596,120.400 281.841,120.400 282.136 C 120.400 282.430,120.850 282.877,121.400 283.127 C 121.950 283.378,122.400 283.765,122.400 283.988 C 122.400 284.341,122.880 284.848,125.301 287.055 C 125.575 287.305,126.340 288.157,127.000 288.946 C 127.660 289.736,128.413 290.387,128.673 290.391 C 128.933 290.396,129.257 290.751,129.394 291.180 C 129.530 291.608,129.992 292.070,130.420 292.206 C 130.849 292.343,131.200 292.640,131.200 292.866 C 131.200 293.363,133.533 295.600,134.051 295.600 C 134.252 295.600,134.622 296.050,134.873 296.600 C 135.123 297.150,135.570 297.600,135.864 297.600 C 136.159 297.600,136.400 297.841,136.400 298.136 C 136.400 298.430,136.850 298.877,137.400 299.127 C 137.950 299.378,138.400 299.748,138.400 299.949 C 138.400 300.467,140.637 302.800,141.134 302.800 C 141.360 302.800,141.660 303.160,141.800 303.600 C 141.940 304.040,142.316 304.400,142.637 304.400 C 142.957 304.400,143.391 304.850,143.600 305.400 C 143.809 305.950,144.255 306.400,144.590 306.400 C 144.926 306.400,145.200 306.674,145.200 307.009 C 145.200 307.343,145.650 307.822,146.200 308.073 C 146.750 308.323,147.200 308.736,147.200 308.989 C 147.200 309.553,149.284 311.600,149.858 311.600 C 150.085 311.600,150.477 312.050,150.727 312.600 C 150.978 313.150,151.457 313.600,151.791 313.600 C 152.126 313.600,152.400 313.795,152.400 314.033 C 152.400 314.586,158.630 320.800,159.184 320.800 C 159.413 320.800,159.600 321.126,159.600 321.525 C 159.600 322.325,161.565 324.400,162.322 324.400 C 162.585 324.400,162.800 324.599,162.800 324.843 C 162.800 325.397,167.034 329.600,167.591 329.600 C 167.816 329.600,168.000 329.774,168.000 329.986 C 168.000 330.622,170.439 333.200,171.041 333.200 C 171.349 333.200,171.604 333.425,171.609 333.700 C 171.613 333.975,172.272 334.740,173.073 335.400 C 173.873 336.060,174.925 337.005,175.410 337.500 C 175.895 337.995,176.456 338.400,176.657 338.400 C 176.858 338.400,177.311 338.737,177.663 339.149 C 178.016 339.560,179.134 340.214,180.148 340.601 C 183.501 341.882,183.202 348.209,183.184 276.251 L 183.167 212.200 182.081 210.932 C 181.484 210.235,180.456 209.536,179.798 209.378 C 179.139 209.221,178.330 208.882,178.000 208.625 C 176.808 207.696,172.370 205.600,171.594 205.600 C 171.157 205.600,170.800 205.411,170.800 205.180 C 170.800 204.948,170.125 204.480,169.300 204.140 C 168.475 203.799,167.530 203.288,167.200 203.005 C 166.870 202.721,166.003 202.362,165.273 202.207 C 164.543 202.052,163.851 201.676,163.734 201.373 C 163.618 201.070,162.896 200.704,162.129 200.560 C 161.363 200.417,160.642 200.054,160.527 199.754 C 160.412 199.454,159.607 199.017,158.738 198.783 C 157.869 198.549,156.807 198.007,156.379 197.579 C 155.951 197.151,155.248 196.800,154.818 196.800 C 154.388 196.800,153.372 196.350,152.562 195.800 C 151.751 195.250,150.866 194.800,150.593 194.800 C 150.321 194.800,149.878 194.535,149.609 194.211 C 149.340 193.886,148.519 193.509,147.786 193.371 C 147.052 193.233,146.143 192.779,145.764 192.360 C 145.386 191.942,144.789 191.594,144.438 191.588 C 144.087 191.581,143.080 191.132,142.200 190.590 C 141.320 190.048,140.304 189.603,139.943 189.602 C 139.581 189.601,139.195 189.364,139.084 189.076 C 138.974 188.787,138.163 188.336,137.283 188.072 C 136.403 187.808,135.589 187.347,135.473 187.047 C 135.358 186.747,134.637 186.383,133.871 186.240 C 133.104 186.096,132.382 185.730,132.266 185.427 C 132.149 185.124,131.510 184.756,130.846 184.610 C 130.181 184.464,129.210 184.008,128.687 183.597 C 128.165 183.186,127.263 182.731,126.685 182.586 C 126.106 182.440,125.422 182.068,125.164 181.757 C 124.907 181.447,123.999 181.081,123.148 180.945 C 122.297 180.809,121.600 180.531,121.600 180.326 C 121.600 180.122,120.835 179.592,119.900 179.147 C 118.965 178.703,117.750 178.086,117.200 177.776 C 116.650 177.466,115.913 177.209,115.562 177.206 C 115.211 177.203,114.598 176.840,114.200 176.400 C 113.802 175.960,113.168 175.600,112.792 175.600 C 112.416 175.600,111.648 175.238,111.086 174.796 C 110.525 174.355,109.522 173.884,108.858 173.752 C 108.194 173.619,107.566 173.288,107.462 173.017 C 107.358 172.746,106.446 172.293,105.436 172.010 C 104.426 171.727,103.600 171.353,103.600 171.179 C 103.600 171.005,102.984 170.659,102.232 170.411 C 101.480 170.162,100.646 169.697,100.380 169.376 C 100.114 169.055,99.193 168.680,98.334 168.543 C 97.438 168.400,96.608 167.988,96.389 167.579 C 96.179 167.186,95.478 166.749,94.831 166.607 C 94.184 166.465,93.445 166.095,93.187 165.785 C 92.930 165.475,92.063 165.099,91.260 164.950 C 90.457 164.800,89.579 164.366,89.309 163.985 C 89.039 163.603,88.320 163.166,87.712 163.014 C 87.103 162.861,86.365 162.537,86.073 162.295 C 85.575 161.881,81.251 160.006,80.786 160.002 C 80.669 160.001,76.829 163.739,72.253 168.309 M316.100 161.060 C 314.945 161.606,314.000 162.201,314.000 162.382 C 314.000 162.563,313.366 162.830,312.591 162.975 C 311.816 163.121,310.963 163.591,310.695 164.020 C 310.403 164.487,309.765 164.800,309.104 164.800 C 308.497 164.800,307.666 165.134,307.258 165.542 C 306.850 165.950,305.995 166.415,305.358 166.575 C 304.721 166.734,303.878 167.210,303.484 167.632 C 303.091 168.055,302.350 168.400,301.838 168.400 C 301.327 168.400,300.464 168.749,299.922 169.175 C 299.380 169.602,298.442 170.075,297.836 170.227 C 297.231 170.379,296.648 170.731,296.540 171.011 C 296.433 171.290,295.540 171.721,294.556 171.969 C 293.572 172.217,292.672 172.668,292.556 172.971 C 292.440 173.274,291.745 173.634,291.012 173.771 C 290.280 173.909,289.470 174.275,289.213 174.585 C 288.955 174.895,288.236 175.260,287.614 175.397 C 286.992 175.534,286.183 175.977,285.815 176.383 C 285.448 176.789,284.548 177.233,283.814 177.371 C 283.081 177.509,282.270 177.875,282.013 178.185 C 281.755 178.495,281.036 178.860,280.414 178.997 C 279.792 179.134,278.966 179.595,278.579 180.023 C 278.193 180.450,277.478 180.800,276.992 180.800 C 276.506 180.800,275.679 181.135,275.154 181.545 C 274.629 181.955,273.816 182.410,273.348 182.557 C 272.879 182.704,272.086 183.178,271.586 183.612 C 271.087 184.045,270.255 184.400,269.739 184.400 C 269.222 184.400,268.466 184.734,268.058 185.142 C 267.650 185.550,266.795 186.014,266.158 186.173 C 265.521 186.332,264.730 186.696,264.400 186.981 C 264.070 187.266,263.125 187.716,262.300 187.980 C 261.475 188.245,260.800 188.718,260.800 189.031 C 260.800 189.354,260.411 189.601,259.900 189.602 C 258.935 189.603,254.796 191.534,253.678 192.504 C 253.305 192.828,252.460 193.221,251.800 193.377 C 251.140 193.534,250.330 193.897,250.000 194.184 C 249.670 194.471,248.950 194.841,248.400 195.008 C 247.850 195.174,246.971 195.645,246.446 196.055 C 245.921 196.465,245.163 196.800,244.762 196.800 C 244.360 196.800,243.709 197.135,243.316 197.544 C 242.922 197.953,242.074 198.414,241.432 198.568 C 240.789 198.723,239.820 199.198,239.278 199.625 C 238.736 200.051,237.984 200.400,237.608 200.400 C 237.232 200.400,236.607 200.750,236.221 201.177 C 235.834 201.605,234.951 202.079,234.259 202.231 C 232.735 202.565,228.800 204.733,228.800 205.238 C 228.800 205.437,228.260 205.600,227.600 205.600 C 226.940 205.600,226.081 205.919,225.690 206.310 C 225.300 206.700,224.220 207.247,223.290 207.526 C 222.361 207.804,221.600 208.198,221.600 208.401 C 221.600 208.603,220.880 208.963,220.000 209.200 C 219.120 209.437,218.400 209.797,218.400 210.000 C 218.400 210.203,218.039 210.705,217.597 211.116 C 216.509 212.130,216.308 339.679,217.393 340.764 C 218.081 341.452,221.898 340.374,222.532 339.312 C 222.715 339.006,223.300 338.590,223.832 338.388 C 224.365 338.185,224.800 337.745,224.800 337.410 C 224.800 337.074,225.035 336.800,225.322 336.800 C 225.969 336.800,228.400 334.337,228.400 333.681 C 228.400 333.416,228.647 333.200,228.949 333.200 C 229.251 333.200,230.245 332.390,231.157 331.400 C 232.070 330.410,232.894 329.600,232.989 329.600 C 233.224 329.600,237.200 325.610,237.200 325.374 C 237.200 325.271,237.965 324.408,238.900 323.457 C 239.835 322.506,240.805 321.475,241.055 321.164 C 241.305 320.854,242.157 320.060,242.946 319.400 C 243.736 318.740,244.387 317.975,244.391 317.700 C 244.396 317.425,244.565 317.200,244.766 317.200 C 245.245 317.200,248.000 314.520,248.000 314.054 C 248.000 313.855,248.360 313.599,248.800 313.484 C 249.240 313.369,249.600 312.988,249.600 312.637 C 249.600 312.287,249.745 312.000,249.922 312.000 C 250.434 312.000,253.200 309.339,253.200 308.846 C 253.200 308.601,253.362 308.400,253.560 308.400 C 254.013 308.400,256.800 305.636,256.800 305.187 C 256.800 305.004,257.160 304.740,257.600 304.600 C 258.040 304.460,258.400 304.174,258.400 303.964 C 258.400 303.755,260.020 301.999,262.000 300.064 C 263.980 298.129,265.600 296.333,265.600 296.073 C 265.600 295.813,265.825 295.596,266.100 295.591 C 266.726 295.579,270.800 291.474,270.800 290.855 C 270.800 290.605,271.025 290.398,271.300 290.396 C 271.921 290.390,274.400 287.881,274.400 287.257 C 274.400 287.006,274.594 286.800,274.831 286.800 C 275.393 286.800,286.800 275.393,286.800 274.831 C 286.800 274.594,286.986 274.400,287.213 274.400 C 287.751 274.400,290.400 271.751,290.400 271.213 C 290.400 270.986,290.580 270.800,290.800 270.800 C 291.295 270.800,295.600 266.568,295.600 266.082 C 295.600 265.887,296.050 265.523,296.600 265.273 C 297.150 265.022,297.600 264.543,297.600 264.209 C 297.600 263.874,297.858 263.600,298.173 263.600 C 298.488 263.600,298.860 263.240,299.000 262.800 C 299.140 262.360,299.387 262.000,299.549 262.000 C 300.025 262.000,302.800 259.331,302.800 258.873 C 302.800 258.643,303.160 258.340,303.600 258.200 C 304.040 258.060,304.400 257.788,304.400 257.596 C 304.400 257.403,311.105 250.524,319.300 242.309 C 334.508 227.065,338.400 222.915,338.400 221.942 C 338.400 221.640,338.744 221.178,339.164 220.915 C 339.584 220.653,340.053 219.871,340.205 219.178 C 340.357 218.485,340.823 217.577,341.241 217.159 C 341.658 216.742,342.000 215.919,342.000 215.331 C 342.000 214.744,342.296 213.936,342.658 213.536 C 343.020 213.136,343.539 211.502,343.812 209.905 C 344.085 208.307,344.529 205.920,344.799 204.600 C 345.371 201.804,345.090 196.762,344.198 193.836 C 343.869 192.756,343.600 191.386,343.600 190.790 C 343.600 190.195,343.268 189.279,342.861 188.754 C 342.455 188.229,342.013 187.106,341.879 186.257 C 341.746 185.409,341.380 184.509,341.066 184.257 C 340.753 184.006,340.382 183.310,340.243 182.711 C 340.104 182.112,339.672 181.302,339.283 180.911 C 338.894 180.520,338.311 179.671,337.988 179.024 C 337.664 178.377,335.555 175.980,333.300 173.696 C 331.045 171.413,329.200 169.377,329.200 169.172 C 329.200 168.968,329.049 168.800,328.866 168.800 C 328.682 168.800,326.500 166.820,324.018 164.400 C 319.093 159.598,319.144 159.620,316.100 161.060 M85.879 163.148 C 97.206 168.759,112.701 176.487,113.200 176.774 C 113.690 177.057,124.705 182.579,129.400 184.896 C 130.060 185.221,132.400 186.433,134.600 187.588 C 136.800 188.743,140.400 190.580,142.600 191.671 C 144.800 192.762,146.960 193.855,147.400 194.099 C 147.840 194.344,151.980 196.411,156.600 198.692 C 161.220 200.973,165.270 203.007,165.600 203.211 C 165.930 203.415,167.550 204.227,169.200 205.015 C 170.850 205.803,172.470 206.607,172.800 206.801 C 173.130 206.995,174.930 207.907,176.800 208.828 C 178.670 209.748,180.605 210.870,181.100 211.320 L 182.000 212.139 182.000 275.656 C 182.000 335.743,181.962 339.191,181.300 339.532 C 179.673 340.369,177.303 338.462,166.714 327.800 C 153.403 314.397,113.807 274.428,105.089 265.593 C 100.200 260.639,89.059 249.370,80.332 240.551 C 71.562 231.688,63.847 223.550,63.084 222.358 C 61.085 219.233,58.828 214.818,58.402 213.200 C 58.199 212.430,57.747 210.810,57.398 209.600 C 55.578 203.296,57.085 186.954,59.633 185.380 C 59.822 185.263,60.319 184.393,60.738 183.448 C 62.245 180.040,64.551 177.266,72.509 169.291 C 81.738 160.041,80.632 160.549,85.879 163.148 M327.697 169.100 C 341.552 182.878,343.852 187.726,343.489 202.398 C 343.283 210.715,342.677 213.197,339.436 219.000 C 336.678 223.938,340.074 220.419,263.290 297.900 C 250.591 310.714,236.685 324.763,232.388 329.120 C 222.902 338.738,219.657 341.097,218.080 339.520 C 217.711 339.151,217.600 324.439,217.600 275.734 L 217.600 212.428 218.841 211.014 C 219.524 210.236,220.281 209.600,220.524 209.600 C 220.882 209.600,241.865 199.227,244.000 197.995 C 244.330 197.804,248.380 195.796,253.000 193.532 C 257.620 191.267,261.638 189.186,261.929 188.907 C 262.219 188.628,262.700 188.400,262.997 188.400 C 263.669 188.400,269.120 185.653,269.424 185.161 C 269.547 184.963,269.952 184.797,270.324 184.794 C 270.696 184.791,271.450 184.534,272.000 184.224 C 272.550 183.913,279.300 180.488,287.000 176.611 C 294.700 172.734,301.270 169.398,301.600 169.198 C 302.112 168.887,309.941 165.016,312.517 163.800 C 312.983 163.580,314.273 162.915,315.382 162.321 C 319.023 160.374,318.797 160.250,327.697 169.100 " stroke="none" fill="#c4dcfc" fill-rule="evenodd"></path></g></svg>